<?xml version="1.0" standalone="no"?>
<!DOCTYPE svg PUBLIC "-//W3C//DTD SVG 20010904//EN"
 "http://www.w3.org/TR/2001/REC-SVG-20010904/DTD/svg10.dtd">
<svg version="1.0" xmlns="http://www.w3.org/2000/svg"
 width="260.000000pt" height="260.000000pt" viewBox="0 0 260.000000 260.000000"
 preserveAspectRatio="xMidYMid meet">
<metadata>
Created by potrace 1.11, written by Peter Selinger 2001-2013
</metadata>
<g transform="translate(0.000000,260.000000) scale(0.100000,-0.100000)"
fill="#000000" stroke="none">
<path d="M1237 2424 c-1 -1 -33 -5 -72 -9 -314 -29 -568 -179 -663 -390 -31
-70 -41 -135 -38 -245 8 -210 98 -348 316 -483 41 -25 206 -110 365 -188 160
-78 292 -146 293 -150 2 -5 9 -9 16 -9 17 0 91 -79 111 -120 36 -70 8 -183
-58 -233 -60 -46 -180 -74 -297 -71 -82 2 -127 13 -209 50 -155 71 -279 191
-357 345 -18 38 -43 73 -53 79 -29 15 -63 12 -87 -8 -25 -20 -174 -306 -174
-334 0 -107 214 -278 466 -373 71 -27 104 -36 209 -60 186 -41 419 -41 605 0
14 3 36 8 49 11 48 10 177 64 240 101 280 165 412 516 294 788 -25 60 -107
167 -164 216 -129 112 -318 216 -584 324 -174 70 -275 120 -313 155 -124 112
-52 245 144 268 133 15 274 -26 400 -119 57 -41 134 -116 134 -131 0 -10 54
-37 82 -42 47 -7 64 13 137 162 39 81 71 155 71 165 0 49 -50 97 -160 155 -90
48 -244 102 -337 118 -13 2 -35 6 -50 9 -68 12 -307 27 -316 19z"/>
</g>
</svg>
